<mxfile host="app.diagrams.net" modified="2022-10-20T05:13:40.727Z" agent="5.0 (Windows NT 10.0; Win64; x64) AppleWebKit/537.36 (KHTML, like Gecko) Chrome/106.0.0.0 Safari/537.36" etag="DRxMaLqSbAyfaCBAy-b6" version="20.4.2" type="github">
  <diagram id="vE-s246k_aeRdo4_wEya" name="Page-1">
    <mxGraphModel dx="2071" dy="1744" grid="1" gridSize="10" guides="1" tooltips="1" connect="1" arrows="1" fold="1" page="1" pageScale="1" pageWidth="850" pageHeight="1100" math="0" shadow="0">
      <root>
        <mxCell id="0" />
        <mxCell id="1" parent="0" />
        <mxCell id="m1RIJeh8Od90vUy7fvxv-1" value="" style="rounded=0;whiteSpace=wrap;html=1;fillColor=#dae8fc;strokeColor=#6c8ebf;" parent="1" vertex="1">
          <mxGeometry x="-160" y="-70" width="1170" height="1020" as="geometry" />
        </mxCell>
        <mxCell id="m1RIJeh8Od90vUy7fvxv-4" value="" style="rounded=0;whiteSpace=wrap;html=1;" parent="1" vertex="1">
          <mxGeometry x="-120" width="1070" height="850" as="geometry" />
        </mxCell>
        <mxCell id="m1RIJeh8Od90vUy7fvxv-7" value="" style="rounded=0;whiteSpace=wrap;html=1;dashed=1;" parent="1" vertex="1">
          <mxGeometry x="-80" y="60" width="990" height="710" as="geometry" />
        </mxCell>
        <mxCell id="XqV5y8-OUDh3f7qE2_EZ-30" value="" style="rounded=0;whiteSpace=wrap;html=1;strokeWidth=0;" vertex="1" parent="1">
          <mxGeometry x="70" y="450" width="800" height="300" as="geometry" />
        </mxCell>
        <mxCell id="XqV5y8-OUDh3f7qE2_EZ-32" value="" style="rounded=0;whiteSpace=wrap;html=1;strokeWidth=1;opacity=40;" vertex="1" parent="1">
          <mxGeometry x="110" y="480" width="660" height="110" as="geometry" />
        </mxCell>
        <mxCell id="m1RIJeh8Od90vUy7fvxv-2" value="" style="rounded=0;whiteSpace=wrap;html=1;strokeWidth=0;" parent="1" vertex="1">
          <mxGeometry x="70" y="80" width="800" height="300" as="geometry" />
        </mxCell>
        <mxCell id="XqV5y8-OUDh3f7qE2_EZ-3" value="" style="rounded=0;whiteSpace=wrap;html=1;strokeWidth=1;opacity=40;" vertex="1" parent="1">
          <mxGeometry x="100" y="110" width="670" height="110" as="geometry" />
        </mxCell>
        <mxCell id="XqV5y8-OUDh3f7qE2_EZ-80" value="" style="rounded=0;whiteSpace=wrap;html=1;strokeWidth=1;fontSize=11;opacity=30;" vertex="1" parent="1">
          <mxGeometry x="389" y="122" width="100" height="580" as="geometry" />
        </mxCell>
        <mxCell id="XqV5y8-OUDh3f7qE2_EZ-47" value="" style="rounded=0;whiteSpace=wrap;html=1;strokeWidth=1;fontSize=11;opacity=30;" vertex="1" parent="1">
          <mxGeometry x="534.5" y="120" width="175.5" height="580" as="geometry" />
        </mxCell>
        <mxCell id="m1RIJeh8Od90vUy7fvxv-5" value="" style="aspect=fixed;html=1;points=[];align=center;image;fontSize=12;image=img/lib/azure2/compute/Kubernetes_Services.svg;" parent="1" vertex="1">
          <mxGeometry x="50" y="10" width="34.01" height="30" as="geometry" />
        </mxCell>
        <mxCell id="m1RIJeh8Od90vUy7fvxv-8" value="User Node Pool" style="text;html=1;resizable=0;autosize=1;align=center;verticalAlign=middle;points=[];fillColor=none;strokeColor=none;rounded=0;fontSize=10;fontStyle=1" parent="1" vertex="1">
          <mxGeometry x="-37" y="110" width="100" height="30" as="geometry" />
        </mxCell>
        <mxCell id="m1RIJeh8Od90vUy7fvxv-9" value="&lt;font style=&quot;font-size: 9px;&quot;&gt;&lt;b&gt;Availability Zone 1&lt;/b&gt;&lt;/font&gt;" style="text;html=1;resizable=0;autosize=1;align=center;verticalAlign=middle;points=[];fillColor=none;strokeColor=none;rounded=0;" parent="1" vertex="1">
          <mxGeometry x="50" y="70" width="100" height="30" as="geometry" />
        </mxCell>
        <mxCell id="m1RIJeh8Od90vUy7fvxv-14" value="" style="rounded=0;whiteSpace=wrap;html=1;fontSize=10;strokeWidth=0;" parent="1" vertex="1">
          <mxGeometry x="-37" y="170" width="80" height="270" as="geometry" />
        </mxCell>
        <mxCell id="m1RIJeh8Od90vUy7fvxv-13" value="" style="sketch=0;html=1;dashed=0;whitespace=wrap;fillColor=#2875E2;strokeColor=#ffffff;points=[[0.005,0.63,0],[0.1,0.2,0],[0.9,0.2,0],[0.5,0,0],[0.995,0.63,0],[0.72,0.99,0],[0.5,1,0],[0.28,0.99,0]];shape=mxgraph.kubernetes.icon;prIcon=ing;fontSize=10;" parent="1" vertex="1">
          <mxGeometry x="-12" y="282" width="30" height="28" as="geometry" />
        </mxCell>
        <mxCell id="m1RIJeh8Od90vUy7fvxv-15" value="Ingress" style="text;html=1;resizable=0;autosize=1;align=center;verticalAlign=middle;points=[];fillColor=none;strokeColor=none;rounded=0;fontSize=10;fontStyle=1" parent="1" vertex="1">
          <mxGeometry x="-27" y="330" width="60" height="30" as="geometry" />
        </mxCell>
        <mxCell id="m1RIJeh8Od90vUy7fvxv-41" value="Azure Kubernetes Service (AKS)" style="text;html=1;resizable=0;autosize=1;align=center;verticalAlign=middle;points=[];fillColor=none;strokeColor=none;rounded=0;" parent="1" vertex="1">
          <mxGeometry x="95" y="10" width="200" height="30" as="geometry" />
        </mxCell>
        <mxCell id="XqV5y8-OUDh3f7qE2_EZ-7" value="" style="rounded=0;whiteSpace=wrap;html=1;strokeWidth=1;opacity=40;" vertex="1" parent="1">
          <mxGeometry x="100" y="240" width="670" height="110" as="geometry" />
        </mxCell>
        <mxCell id="XqV5y8-OUDh3f7qE2_EZ-31" value="&lt;font style=&quot;font-size: 9px;&quot;&gt;&lt;b&gt;Availability Zone 2&lt;/b&gt;&lt;/font&gt;" style="text;html=1;resizable=0;autosize=1;align=center;verticalAlign=middle;points=[];fillColor=none;strokeColor=none;rounded=0;" vertex="1" parent="1">
          <mxGeometry x="60" y="410" width="100" height="30" as="geometry" />
        </mxCell>
        <mxCell id="XqV5y8-OUDh3f7qE2_EZ-33" value="" style="rounded=0;whiteSpace=wrap;html=1;strokeWidth=1;opacity=40;" vertex="1" parent="1">
          <mxGeometry x="110" y="610" width="660" height="110" as="geometry" />
        </mxCell>
        <mxCell id="XqV5y8-OUDh3f7qE2_EZ-50" value="" style="sketch=0;html=1;dashed=0;whitespace=wrap;fillColor=#2875E2;strokeColor=#ffffff;points=[[0.005,0.63,0],[0.1,0.2,0],[0.9,0.2,0],[0.5,0,0],[0.995,0.63,0],[0.72,0.99,0],[0.5,1,0],[0.28,0.99,0]];shape=mxgraph.kubernetes.icon;prIcon=svc;strokeWidth=1;fontSize=11;direction=south;rotation=-180;" vertex="1" parent="1">
          <mxGeometry x="520" y="400" width="30" height="30" as="geometry" />
        </mxCell>
        <mxCell id="XqV5y8-OUDh3f7qE2_EZ-52" value="" style="sketch=0;html=1;dashed=0;whitespace=wrap;fillColor=#2875E2;strokeColor=#ffffff;points=[[0.005,0.63,0],[0.1,0.2,0],[0.9,0.2,0],[0.5,0,0],[0.995,0.63,0],[0.72,0.99,0],[0.5,1,0],[0.28,0.99,0]];shape=mxgraph.kubernetes.icon;prIcon=pod;strokeWidth=1;fontSize=11;" vertex="1" parent="1">
          <mxGeometry x="140" y="282" width="35" height="30" as="geometry" />
        </mxCell>
        <mxCell id="XqV5y8-OUDh3f7qE2_EZ-56" value="" style="group" vertex="1" connectable="0" parent="1">
          <mxGeometry x="532" y="150" width="178" height="62" as="geometry" />
        </mxCell>
        <mxCell id="XqV5y8-OUDh3f7qE2_EZ-54" value="Ingest" style="text;html=1;resizable=0;autosize=1;align=center;verticalAlign=middle;points=[];fillColor=none;strokeColor=none;rounded=0;strokeWidth=1;fontSize=11;" vertex="1" parent="XqV5y8-OUDh3f7qE2_EZ-56">
          <mxGeometry x="66" y="30" width="50" height="30" as="geometry" />
        </mxCell>
        <mxCell id="XqV5y8-OUDh3f7qE2_EZ-55" value="Data" style="text;html=1;resizable=0;autosize=1;align=center;verticalAlign=middle;points=[];fillColor=none;strokeColor=none;rounded=0;strokeWidth=1;fontSize=11;" vertex="1" parent="XqV5y8-OUDh3f7qE2_EZ-56">
          <mxGeometry x="128" y="32" width="50" height="30" as="geometry" />
        </mxCell>
        <mxCell id="XqV5y8-OUDh3f7qE2_EZ-21" value="" style="sketch=0;html=1;dashed=0;whitespace=wrap;fillColor=#2875E2;strokeColor=#ffffff;points=[[0.005,0.63,0],[0.1,0.2,0],[0.9,0.2,0],[0.5,0,0],[0.995,0.63,0],[0.72,0.99,0],[0.5,1,0],[0.28,0.99,0]];shape=mxgraph.kubernetes.icon;prIcon=pod;strokeWidth=1;fontSize=11;" vertex="1" parent="XqV5y8-OUDh3f7qE2_EZ-56">
          <mxGeometry x="15" width="30" height="30" as="geometry" />
        </mxCell>
        <mxCell id="XqV5y8-OUDh3f7qE2_EZ-22" value="" style="sketch=0;html=1;dashed=0;whitespace=wrap;fillColor=#2875E2;strokeColor=#ffffff;points=[[0.005,0.63,0],[0.1,0.2,0],[0.9,0.2,0],[0.5,0,0],[0.995,0.63,0],[0.72,0.99,0],[0.5,1,0],[0.28,0.99,0]];shape=mxgraph.kubernetes.icon;prIcon=pod;strokeWidth=1;fontSize=11;" vertex="1" parent="XqV5y8-OUDh3f7qE2_EZ-56">
          <mxGeometry x="75" width="35" height="30" as="geometry" />
        </mxCell>
        <mxCell id="XqV5y8-OUDh3f7qE2_EZ-23" value="" style="sketch=0;html=1;dashed=0;whitespace=wrap;fillColor=#2875E2;strokeColor=#ffffff;points=[[0.005,0.63,0],[0.1,0.2,0],[0.9,0.2,0],[0.5,0,0],[0.995,0.63,0],[0.72,0.99,0],[0.5,1,0],[0.28,0.99,0]];shape=mxgraph.kubernetes.icon;prIcon=pod;strokeWidth=1;fontSize=11;" vertex="1" parent="XqV5y8-OUDh3f7qE2_EZ-56">
          <mxGeometry x="135" width="35" height="30" as="geometry" />
        </mxCell>
        <mxCell id="XqV5y8-OUDh3f7qE2_EZ-24" value="" style="endArrow=classic;startArrow=classic;html=1;rounded=0;fontSize=11;entryX=0.005;entryY=0.63;entryDx=0;entryDy=0;entryPerimeter=0;opacity=30;" edge="1" parent="XqV5y8-OUDh3f7qE2_EZ-56">
          <mxGeometry width="50" height="50" relative="1" as="geometry">
            <mxPoint x="46" y="19" as="sourcePoint" />
            <mxPoint x="76.17500000000018" y="17.90000000000009" as="targetPoint" />
          </mxGeometry>
        </mxCell>
        <mxCell id="XqV5y8-OUDh3f7qE2_EZ-25" value="" style="endArrow=classic;startArrow=classic;html=1;rounded=0;fontSize=11;entryX=0.005;entryY=0.63;entryDx=0;entryDy=0;entryPerimeter=0;opacity=30;" edge="1" parent="XqV5y8-OUDh3f7qE2_EZ-56">
          <mxGeometry width="50" height="50" relative="1" as="geometry">
            <mxPoint x="108" y="19" as="sourcePoint" />
            <mxPoint x="138.17500000000018" y="17.90000000000009" as="targetPoint" />
          </mxGeometry>
        </mxCell>
        <mxCell id="XqV5y8-OUDh3f7qE2_EZ-53" value="Master" style="text;html=1;resizable=0;autosize=1;align=center;verticalAlign=middle;points=[];fillColor=none;strokeColor=none;rounded=0;strokeWidth=1;fontSize=11;" vertex="1" parent="XqV5y8-OUDh3f7qE2_EZ-56">
          <mxGeometry y="30" width="60" height="30" as="geometry" />
        </mxCell>
        <mxCell id="XqV5y8-OUDh3f7qE2_EZ-58" value="" style="group" vertex="1" connectable="0" parent="1">
          <mxGeometry x="534" y="270" width="178" height="62" as="geometry" />
        </mxCell>
        <mxCell id="XqV5y8-OUDh3f7qE2_EZ-59" value="Ingest" style="text;html=1;resizable=0;autosize=1;align=center;verticalAlign=middle;points=[];fillColor=none;strokeColor=none;rounded=0;strokeWidth=1;fontSize=11;" vertex="1" parent="XqV5y8-OUDh3f7qE2_EZ-58">
          <mxGeometry x="66" y="30" width="50" height="30" as="geometry" />
        </mxCell>
        <mxCell id="XqV5y8-OUDh3f7qE2_EZ-60" value="Data" style="text;html=1;resizable=0;autosize=1;align=center;verticalAlign=middle;points=[];fillColor=none;strokeColor=none;rounded=0;strokeWidth=1;fontSize=11;" vertex="1" parent="XqV5y8-OUDh3f7qE2_EZ-58">
          <mxGeometry x="128" y="32" width="50" height="30" as="geometry" />
        </mxCell>
        <mxCell id="XqV5y8-OUDh3f7qE2_EZ-61" value="" style="sketch=0;html=1;dashed=0;whitespace=wrap;fillColor=#2875E2;strokeColor=#ffffff;points=[[0.005,0.63,0],[0.1,0.2,0],[0.9,0.2,0],[0.5,0,0],[0.995,0.63,0],[0.72,0.99,0],[0.5,1,0],[0.28,0.99,0]];shape=mxgraph.kubernetes.icon;prIcon=pod;strokeWidth=1;fontSize=11;" vertex="1" parent="XqV5y8-OUDh3f7qE2_EZ-58">
          <mxGeometry x="15" width="30" height="30" as="geometry" />
        </mxCell>
        <mxCell id="XqV5y8-OUDh3f7qE2_EZ-62" value="" style="sketch=0;html=1;dashed=0;whitespace=wrap;fillColor=#2875E2;strokeColor=#ffffff;points=[[0.005,0.63,0],[0.1,0.2,0],[0.9,0.2,0],[0.5,0,0],[0.995,0.63,0],[0.72,0.99,0],[0.5,1,0],[0.28,0.99,0]];shape=mxgraph.kubernetes.icon;prIcon=pod;strokeWidth=1;fontSize=11;" vertex="1" parent="XqV5y8-OUDh3f7qE2_EZ-58">
          <mxGeometry x="75" width="35" height="30" as="geometry" />
        </mxCell>
        <mxCell id="XqV5y8-OUDh3f7qE2_EZ-63" value="" style="sketch=0;html=1;dashed=0;whitespace=wrap;fillColor=#2875E2;strokeColor=#ffffff;points=[[0.005,0.63,0],[0.1,0.2,0],[0.9,0.2,0],[0.5,0,0],[0.995,0.63,0],[0.72,0.99,0],[0.5,1,0],[0.28,0.99,0]];shape=mxgraph.kubernetes.icon;prIcon=pod;strokeWidth=1;fontSize=11;" vertex="1" parent="XqV5y8-OUDh3f7qE2_EZ-58">
          <mxGeometry x="135" width="35" height="30" as="geometry" />
        </mxCell>
        <mxCell id="XqV5y8-OUDh3f7qE2_EZ-64" value="" style="endArrow=classic;startArrow=classic;html=1;rounded=0;fontSize=11;entryX=0.005;entryY=0.63;entryDx=0;entryDy=0;entryPerimeter=0;opacity=30;" edge="1" parent="XqV5y8-OUDh3f7qE2_EZ-58">
          <mxGeometry width="50" height="50" relative="1" as="geometry">
            <mxPoint x="46" y="19" as="sourcePoint" />
            <mxPoint x="76.17500000000018" y="17.90000000000009" as="targetPoint" />
          </mxGeometry>
        </mxCell>
        <mxCell id="XqV5y8-OUDh3f7qE2_EZ-65" value="" style="endArrow=classic;startArrow=classic;html=1;rounded=0;fontSize=11;entryX=0.005;entryY=0.63;entryDx=0;entryDy=0;entryPerimeter=0;opacity=30;" edge="1" parent="XqV5y8-OUDh3f7qE2_EZ-58">
          <mxGeometry width="50" height="50" relative="1" as="geometry">
            <mxPoint x="108" y="19" as="sourcePoint" />
            <mxPoint x="138.17500000000018" y="17.90000000000009" as="targetPoint" />
          </mxGeometry>
        </mxCell>
        <mxCell id="XqV5y8-OUDh3f7qE2_EZ-66" value="Master" style="text;html=1;resizable=0;autosize=1;align=center;verticalAlign=middle;points=[];fillColor=none;strokeColor=none;rounded=0;strokeWidth=1;fontSize=11;" vertex="1" parent="XqV5y8-OUDh3f7qE2_EZ-58">
          <mxGeometry y="30" width="60" height="30" as="geometry" />
        </mxCell>
        <mxCell id="XqV5y8-OUDh3f7qE2_EZ-69" value="" style="group" vertex="1" connectable="0" parent="1">
          <mxGeometry x="399" y="272" width="80" height="60" as="geometry" />
        </mxCell>
        <mxCell id="XqV5y8-OUDh3f7qE2_EZ-13" value="" style="sketch=0;html=1;dashed=0;whitespace=wrap;fillColor=#2875E2;strokeColor=#ffffff;points=[[0.005,0.63,0],[0.1,0.2,0],[0.9,0.2,0],[0.5,0,0],[0.995,0.63,0],[0.72,0.99,0],[0.5,1,0],[0.28,0.99,0]];shape=mxgraph.kubernetes.icon;prIcon=pod;strokeWidth=1;fontSize=11;fontStyle=1" vertex="1" parent="XqV5y8-OUDh3f7qE2_EZ-69">
          <mxGeometry x="22.5" width="35" height="30" as="geometry" />
        </mxCell>
        <mxCell id="XqV5y8-OUDh3f7qE2_EZ-68" value="Fleet Server" style="text;html=1;resizable=0;autosize=1;align=center;verticalAlign=middle;points=[];fillColor=none;strokeColor=none;rounded=0;strokeWidth=1;fontSize=11;" vertex="1" parent="XqV5y8-OUDh3f7qE2_EZ-69">
          <mxGeometry y="30" width="80" height="30" as="geometry" />
        </mxCell>
        <mxCell id="XqV5y8-OUDh3f7qE2_EZ-70" value="" style="group" vertex="1" connectable="0" parent="1">
          <mxGeometry x="399" y="154" width="80" height="60" as="geometry" />
        </mxCell>
        <mxCell id="XqV5y8-OUDh3f7qE2_EZ-71" value="" style="sketch=0;html=1;dashed=0;whitespace=wrap;fillColor=#2875E2;strokeColor=#ffffff;points=[[0.005,0.63,0],[0.1,0.2,0],[0.9,0.2,0],[0.5,0,0],[0.995,0.63,0],[0.72,0.99,0],[0.5,1,0],[0.28,0.99,0]];shape=mxgraph.kubernetes.icon;prIcon=pod;strokeWidth=1;fontSize=11;fontStyle=1" vertex="1" parent="XqV5y8-OUDh3f7qE2_EZ-70">
          <mxGeometry x="22.5" width="35" height="30" as="geometry" />
        </mxCell>
        <mxCell id="XqV5y8-OUDh3f7qE2_EZ-72" value="Fleet Server" style="text;html=1;resizable=0;autosize=1;align=center;verticalAlign=middle;points=[];fillColor=none;strokeColor=none;rounded=0;strokeWidth=1;fontSize=11;" vertex="1" parent="XqV5y8-OUDh3f7qE2_EZ-70">
          <mxGeometry y="30" width="80" height="30" as="geometry" />
        </mxCell>
        <mxCell id="XqV5y8-OUDh3f7qE2_EZ-74" value="" style="group" vertex="1" connectable="0" parent="1">
          <mxGeometry x="399" y="632" width="80" height="60" as="geometry" />
        </mxCell>
        <mxCell id="XqV5y8-OUDh3f7qE2_EZ-75" value="" style="sketch=0;html=1;dashed=0;whitespace=wrap;fillColor=#2875E2;strokeColor=#ffffff;points=[[0.005,0.63,0],[0.1,0.2,0],[0.9,0.2,0],[0.5,0,0],[0.995,0.63,0],[0.72,0.99,0],[0.5,1,0],[0.28,0.99,0]];shape=mxgraph.kubernetes.icon;prIcon=pod;strokeWidth=1;fontSize=11;fontStyle=1" vertex="1" parent="XqV5y8-OUDh3f7qE2_EZ-74">
          <mxGeometry x="22.5" width="35" height="30" as="geometry" />
        </mxCell>
        <mxCell id="XqV5y8-OUDh3f7qE2_EZ-76" value="Fleet Server" style="text;html=1;resizable=0;autosize=1;align=center;verticalAlign=middle;points=[];fillColor=none;strokeColor=none;rounded=0;strokeWidth=1;fontSize=11;" vertex="1" parent="XqV5y8-OUDh3f7qE2_EZ-74">
          <mxGeometry y="30" width="80" height="30" as="geometry" />
        </mxCell>
        <mxCell id="XqV5y8-OUDh3f7qE2_EZ-77" value="" style="group" vertex="1" connectable="0" parent="1">
          <mxGeometry x="399" y="512" width="80" height="60" as="geometry" />
        </mxCell>
        <mxCell id="XqV5y8-OUDh3f7qE2_EZ-78" value="" style="sketch=0;html=1;dashed=0;whitespace=wrap;fillColor=#2875E2;strokeColor=#ffffff;points=[[0.005,0.63,0],[0.1,0.2,0],[0.9,0.2,0],[0.5,0,0],[0.995,0.63,0],[0.72,0.99,0],[0.5,1,0],[0.28,0.99,0]];shape=mxgraph.kubernetes.icon;prIcon=pod;strokeWidth=1;fontSize=11;fontStyle=1" vertex="1" parent="XqV5y8-OUDh3f7qE2_EZ-77">
          <mxGeometry x="22.5" width="35" height="30" as="geometry" />
        </mxCell>
        <mxCell id="XqV5y8-OUDh3f7qE2_EZ-79" value="Fleet Server" style="text;html=1;resizable=0;autosize=1;align=center;verticalAlign=middle;points=[];fillColor=none;strokeColor=none;rounded=0;strokeWidth=1;fontSize=11;" vertex="1" parent="XqV5y8-OUDh3f7qE2_EZ-77">
          <mxGeometry y="30" width="80" height="30" as="geometry" />
        </mxCell>
        <mxCell id="XqV5y8-OUDh3f7qE2_EZ-81" value="" style="group" vertex="1" connectable="0" parent="1">
          <mxGeometry x="537" y="510" width="178" height="62" as="geometry" />
        </mxCell>
        <mxCell id="XqV5y8-OUDh3f7qE2_EZ-82" value="Ingest" style="text;html=1;resizable=0;autosize=1;align=center;verticalAlign=middle;points=[];fillColor=none;strokeColor=none;rounded=0;strokeWidth=1;fontSize=11;" vertex="1" parent="XqV5y8-OUDh3f7qE2_EZ-81">
          <mxGeometry x="66" y="30" width="50" height="30" as="geometry" />
        </mxCell>
        <mxCell id="XqV5y8-OUDh3f7qE2_EZ-83" value="Data" style="text;html=1;resizable=0;autosize=1;align=center;verticalAlign=middle;points=[];fillColor=none;strokeColor=none;rounded=0;strokeWidth=1;fontSize=11;" vertex="1" parent="XqV5y8-OUDh3f7qE2_EZ-81">
          <mxGeometry x="128" y="32" width="50" height="30" as="geometry" />
        </mxCell>
        <mxCell id="XqV5y8-OUDh3f7qE2_EZ-84" value="" style="sketch=0;html=1;dashed=0;whitespace=wrap;fillColor=#2875E2;strokeColor=#ffffff;points=[[0.005,0.63,0],[0.1,0.2,0],[0.9,0.2,0],[0.5,0,0],[0.995,0.63,0],[0.72,0.99,0],[0.5,1,0],[0.28,0.99,0]];shape=mxgraph.kubernetes.icon;prIcon=pod;strokeWidth=1;fontSize=11;" vertex="1" parent="XqV5y8-OUDh3f7qE2_EZ-81">
          <mxGeometry x="15" width="30" height="30" as="geometry" />
        </mxCell>
        <mxCell id="XqV5y8-OUDh3f7qE2_EZ-85" value="" style="sketch=0;html=1;dashed=0;whitespace=wrap;fillColor=#2875E2;strokeColor=#ffffff;points=[[0.005,0.63,0],[0.1,0.2,0],[0.9,0.2,0],[0.5,0,0],[0.995,0.63,0],[0.72,0.99,0],[0.5,1,0],[0.28,0.99,0]];shape=mxgraph.kubernetes.icon;prIcon=pod;strokeWidth=1;fontSize=11;" vertex="1" parent="XqV5y8-OUDh3f7qE2_EZ-81">
          <mxGeometry x="75" width="35" height="30" as="geometry" />
        </mxCell>
        <mxCell id="XqV5y8-OUDh3f7qE2_EZ-86" value="" style="sketch=0;html=1;dashed=0;whitespace=wrap;fillColor=#2875E2;strokeColor=#ffffff;points=[[0.005,0.63,0],[0.1,0.2,0],[0.9,0.2,0],[0.5,0,0],[0.995,0.63,0],[0.72,0.99,0],[0.5,1,0],[0.28,0.99,0]];shape=mxgraph.kubernetes.icon;prIcon=pod;strokeWidth=1;fontSize=11;" vertex="1" parent="XqV5y8-OUDh3f7qE2_EZ-81">
          <mxGeometry x="135" width="35" height="30" as="geometry" />
        </mxCell>
        <mxCell id="XqV5y8-OUDh3f7qE2_EZ-87" value="" style="endArrow=classic;startArrow=classic;html=1;rounded=0;fontSize=11;entryX=0.005;entryY=0.63;entryDx=0;entryDy=0;entryPerimeter=0;opacity=30;" edge="1" parent="XqV5y8-OUDh3f7qE2_EZ-81">
          <mxGeometry width="50" height="50" relative="1" as="geometry">
            <mxPoint x="46" y="19" as="sourcePoint" />
            <mxPoint x="76.17500000000018" y="17.90000000000009" as="targetPoint" />
          </mxGeometry>
        </mxCell>
        <mxCell id="XqV5y8-OUDh3f7qE2_EZ-88" value="" style="endArrow=classic;startArrow=classic;html=1;rounded=0;fontSize=11;entryX=0.005;entryY=0.63;entryDx=0;entryDy=0;entryPerimeter=0;opacity=30;" edge="1" parent="XqV5y8-OUDh3f7qE2_EZ-81">
          <mxGeometry width="50" height="50" relative="1" as="geometry">
            <mxPoint x="108" y="19" as="sourcePoint" />
            <mxPoint x="138.17500000000018" y="17.90000000000009" as="targetPoint" />
          </mxGeometry>
        </mxCell>
        <mxCell id="XqV5y8-OUDh3f7qE2_EZ-89" value="Master" style="text;html=1;resizable=0;autosize=1;align=center;verticalAlign=middle;points=[];fillColor=none;strokeColor=none;rounded=0;strokeWidth=1;fontSize=11;" vertex="1" parent="XqV5y8-OUDh3f7qE2_EZ-81">
          <mxGeometry y="30" width="60" height="30" as="geometry" />
        </mxCell>
        <mxCell id="XqV5y8-OUDh3f7qE2_EZ-90" value="" style="group" vertex="1" connectable="0" parent="1">
          <mxGeometry x="534" y="637" width="178" height="62" as="geometry" />
        </mxCell>
        <mxCell id="XqV5y8-OUDh3f7qE2_EZ-91" value="Ingest" style="text;html=1;resizable=0;autosize=1;align=center;verticalAlign=middle;points=[];fillColor=none;strokeColor=none;rounded=0;strokeWidth=1;fontSize=11;" vertex="1" parent="XqV5y8-OUDh3f7qE2_EZ-90">
          <mxGeometry x="66" y="30" width="50" height="30" as="geometry" />
        </mxCell>
        <mxCell id="XqV5y8-OUDh3f7qE2_EZ-92" value="Data" style="text;html=1;resizable=0;autosize=1;align=center;verticalAlign=middle;points=[];fillColor=none;strokeColor=none;rounded=0;strokeWidth=1;fontSize=11;" vertex="1" parent="XqV5y8-OUDh3f7qE2_EZ-90">
          <mxGeometry x="128" y="32" width="50" height="30" as="geometry" />
        </mxCell>
        <mxCell id="XqV5y8-OUDh3f7qE2_EZ-93" value="" style="sketch=0;html=1;dashed=0;whitespace=wrap;fillColor=#2875E2;strokeColor=#ffffff;points=[[0.005,0.63,0],[0.1,0.2,0],[0.9,0.2,0],[0.5,0,0],[0.995,0.63,0],[0.72,0.99,0],[0.5,1,0],[0.28,0.99,0]];shape=mxgraph.kubernetes.icon;prIcon=pod;strokeWidth=1;fontSize=11;" vertex="1" parent="XqV5y8-OUDh3f7qE2_EZ-90">
          <mxGeometry x="15" width="30" height="30" as="geometry" />
        </mxCell>
        <mxCell id="XqV5y8-OUDh3f7qE2_EZ-94" value="" style="sketch=0;html=1;dashed=0;whitespace=wrap;fillColor=#2875E2;strokeColor=#ffffff;points=[[0.005,0.63,0],[0.1,0.2,0],[0.9,0.2,0],[0.5,0,0],[0.995,0.63,0],[0.72,0.99,0],[0.5,1,0],[0.28,0.99,0]];shape=mxgraph.kubernetes.icon;prIcon=pod;strokeWidth=1;fontSize=11;" vertex="1" parent="XqV5y8-OUDh3f7qE2_EZ-90">
          <mxGeometry x="75" width="35" height="30" as="geometry" />
        </mxCell>
        <mxCell id="XqV5y8-OUDh3f7qE2_EZ-95" value="" style="sketch=0;html=1;dashed=0;whitespace=wrap;fillColor=#2875E2;strokeColor=#ffffff;points=[[0.005,0.63,0],[0.1,0.2,0],[0.9,0.2,0],[0.5,0,0],[0.995,0.63,0],[0.72,0.99,0],[0.5,1,0],[0.28,0.99,0]];shape=mxgraph.kubernetes.icon;prIcon=pod;strokeWidth=1;fontSize=11;" vertex="1" parent="XqV5y8-OUDh3f7qE2_EZ-90">
          <mxGeometry x="135" width="35" height="30" as="geometry" />
        </mxCell>
        <mxCell id="XqV5y8-OUDh3f7qE2_EZ-96" value="" style="endArrow=classic;startArrow=classic;html=1;rounded=0;fontSize=11;entryX=0.005;entryY=0.63;entryDx=0;entryDy=0;entryPerimeter=0;opacity=30;" edge="1" parent="XqV5y8-OUDh3f7qE2_EZ-90">
          <mxGeometry width="50" height="50" relative="1" as="geometry">
            <mxPoint x="46" y="19" as="sourcePoint" />
            <mxPoint x="76.17500000000018" y="17.90000000000009" as="targetPoint" />
          </mxGeometry>
        </mxCell>
        <mxCell id="XqV5y8-OUDh3f7qE2_EZ-97" value="" style="endArrow=classic;startArrow=classic;html=1;rounded=0;fontSize=11;entryX=0.005;entryY=0.63;entryDx=0;entryDy=0;entryPerimeter=0;opacity=30;" edge="1" parent="XqV5y8-OUDh3f7qE2_EZ-90">
          <mxGeometry width="50" height="50" relative="1" as="geometry">
            <mxPoint x="108" y="19" as="sourcePoint" />
            <mxPoint x="138.17500000000018" y="17.90000000000009" as="targetPoint" />
          </mxGeometry>
        </mxCell>
        <mxCell id="XqV5y8-OUDh3f7qE2_EZ-98" value="Master" style="text;html=1;resizable=0;autosize=1;align=center;verticalAlign=middle;points=[];fillColor=none;strokeColor=none;rounded=0;strokeWidth=1;fontSize=11;" vertex="1" parent="XqV5y8-OUDh3f7qE2_EZ-90">
          <mxGeometry y="30" width="60" height="30" as="geometry" />
        </mxCell>
        <mxCell id="XqV5y8-OUDh3f7qE2_EZ-99" value="" style="sketch=0;html=1;dashed=0;whitespace=wrap;fillColor=#2875E2;strokeColor=#ffffff;points=[[0.005,0.63,0],[0.1,0.2,0],[0.9,0.2,0],[0.5,0,0],[0.995,0.63,0],[0.72,0.99,0],[0.5,1,0],[0.28,0.99,0]];shape=mxgraph.kubernetes.icon;prIcon=svc;strokeWidth=1;fontSize=11;direction=south;rotation=-180;" vertex="1" parent="1">
          <mxGeometry x="374" y="402" width="30" height="30" as="geometry" />
        </mxCell>
        <mxCell id="XqV5y8-OUDh3f7qE2_EZ-100" value="" style="rounded=0;whiteSpace=wrap;html=1;strokeWidth=1;fontSize=11;opacity=30;" vertex="1" parent="1">
          <mxGeometry x="239" y="121" width="100" height="580" as="geometry" />
        </mxCell>
        <mxCell id="XqV5y8-OUDh3f7qE2_EZ-101" value="" style="group" vertex="1" connectable="0" parent="1">
          <mxGeometry x="249" y="271" width="85" height="60" as="geometry" />
        </mxCell>
        <mxCell id="XqV5y8-OUDh3f7qE2_EZ-102" value="" style="sketch=0;html=1;dashed=0;whitespace=wrap;fillColor=#2875E2;strokeColor=#ffffff;points=[[0.005,0.63,0],[0.1,0.2,0],[0.9,0.2,0],[0.5,0,0],[0.995,0.63,0],[0.72,0.99,0],[0.5,1,0],[0.28,0.99,0]];shape=mxgraph.kubernetes.icon;prIcon=pod;strokeWidth=1;fontSize=11;fontStyle=1" vertex="1" parent="XqV5y8-OUDh3f7qE2_EZ-101">
          <mxGeometry x="22.5" width="35" height="30" as="geometry" />
        </mxCell>
        <mxCell id="XqV5y8-OUDh3f7qE2_EZ-103" value="Elastic Agent" style="text;html=1;resizable=0;autosize=1;align=center;verticalAlign=middle;points=[];fillColor=none;strokeColor=none;rounded=0;strokeWidth=1;fontSize=11;" vertex="1" parent="XqV5y8-OUDh3f7qE2_EZ-101">
          <mxGeometry x="-5" y="30" width="90" height="30" as="geometry" />
        </mxCell>
        <mxCell id="XqV5y8-OUDh3f7qE2_EZ-104" value="" style="group" vertex="1" connectable="0" parent="1">
          <mxGeometry x="249" y="153" width="85" height="60" as="geometry" />
        </mxCell>
        <mxCell id="XqV5y8-OUDh3f7qE2_EZ-105" value="" style="sketch=0;html=1;dashed=0;whitespace=wrap;fillColor=#2875E2;strokeColor=#ffffff;points=[[0.005,0.63,0],[0.1,0.2,0],[0.9,0.2,0],[0.5,0,0],[0.995,0.63,0],[0.72,0.99,0],[0.5,1,0],[0.28,0.99,0]];shape=mxgraph.kubernetes.icon;prIcon=pod;strokeWidth=1;fontSize=11;fontStyle=1" vertex="1" parent="XqV5y8-OUDh3f7qE2_EZ-104">
          <mxGeometry x="22.5" width="35" height="30" as="geometry" />
        </mxCell>
        <mxCell id="XqV5y8-OUDh3f7qE2_EZ-106" value="Elastic Agent" style="text;html=1;resizable=0;autosize=1;align=center;verticalAlign=middle;points=[];fillColor=none;strokeColor=none;rounded=0;strokeWidth=1;fontSize=11;" vertex="1" parent="XqV5y8-OUDh3f7qE2_EZ-104">
          <mxGeometry x="-5" y="30" width="90" height="30" as="geometry" />
        </mxCell>
        <mxCell id="XqV5y8-OUDh3f7qE2_EZ-108" value="" style="group" vertex="1" connectable="0" parent="1">
          <mxGeometry x="249" y="511" width="85" height="60" as="geometry" />
        </mxCell>
        <mxCell id="XqV5y8-OUDh3f7qE2_EZ-112" value="" style="group" vertex="1" connectable="0" parent="XqV5y8-OUDh3f7qE2_EZ-108">
          <mxGeometry x="-5" width="90" height="60" as="geometry" />
        </mxCell>
        <mxCell id="XqV5y8-OUDh3f7qE2_EZ-109" value="" style="sketch=0;html=1;dashed=0;whitespace=wrap;fillColor=#2875E2;strokeColor=#ffffff;points=[[0.005,0.63,0],[0.1,0.2,0],[0.9,0.2,0],[0.5,0,0],[0.995,0.63,0],[0.72,0.99,0],[0.5,1,0],[0.28,0.99,0]];shape=mxgraph.kubernetes.icon;prIcon=pod;strokeWidth=1;fontSize=11;fontStyle=1" vertex="1" parent="XqV5y8-OUDh3f7qE2_EZ-112">
          <mxGeometry x="27.5" width="35" height="30" as="geometry" />
        </mxCell>
        <mxCell id="XqV5y8-OUDh3f7qE2_EZ-110" value="Elastic Agent" style="text;html=1;resizable=0;autosize=1;align=center;verticalAlign=middle;points=[];fillColor=none;strokeColor=none;rounded=0;strokeWidth=1;fontSize=11;" vertex="1" parent="XqV5y8-OUDh3f7qE2_EZ-112">
          <mxGeometry y="30" width="90" height="30" as="geometry" />
        </mxCell>
        <mxCell id="XqV5y8-OUDh3f7qE2_EZ-113" value="" style="group" vertex="1" connectable="0" parent="1">
          <mxGeometry x="245" y="625" width="85" height="60" as="geometry" />
        </mxCell>
        <mxCell id="XqV5y8-OUDh3f7qE2_EZ-114" value="" style="group" vertex="1" connectable="0" parent="XqV5y8-OUDh3f7qE2_EZ-113">
          <mxGeometry x="-5" width="90" height="60" as="geometry" />
        </mxCell>
        <mxCell id="XqV5y8-OUDh3f7qE2_EZ-115" value="" style="sketch=0;html=1;dashed=0;whitespace=wrap;fillColor=#2875E2;strokeColor=#ffffff;points=[[0.005,0.63,0],[0.1,0.2,0],[0.9,0.2,0],[0.5,0,0],[0.995,0.63,0],[0.72,0.99,0],[0.5,1,0],[0.28,0.99,0]];shape=mxgraph.kubernetes.icon;prIcon=pod;strokeWidth=1;fontSize=11;fontStyle=1" vertex="1" parent="XqV5y8-OUDh3f7qE2_EZ-114">
          <mxGeometry x="27.5" width="35" height="30" as="geometry" />
        </mxCell>
        <mxCell id="XqV5y8-OUDh3f7qE2_EZ-116" value="Elastic Agent" style="text;html=1;resizable=0;autosize=1;align=center;verticalAlign=middle;points=[];fillColor=none;strokeColor=none;rounded=0;strokeWidth=1;fontSize=11;" vertex="1" parent="XqV5y8-OUDh3f7qE2_EZ-114">
          <mxGeometry y="30" width="90" height="30" as="geometry" />
        </mxCell>
      </root>
    </mxGraphModel>
  </diagram>
</mxfile>
